{"glyphs":{" ":{"ha":422,"x_min":0,"x_max":0,"o":""},"!":{"ha":283,"x_min":41,"x_max":229,"o":"m 41 1065 l 229 1065 l 229 751 l 166 658 l 229 658 l 229 219 l 41 219 l 41 407 l 103 407 l 41 501 l 41 1065 m 41 125 l 229 125 l 229 -62 l 41 -62 l 41 125 z "},",":{"ha":346,"x_min":41,"x_max":291,"o":"m 135 219 l 229 219 q 291 157 291 210 l 291 0 q 103 -219 160 -219 l 41 -219 l 41 -157 q 135 -94 41 -94 l 135 219 z "},".":{"ha":283,"x_min":41,"x_max":229,"o":"m 41 188 l 229 188 l 229 62 q 166 0 229 0 l 41 0 l 41 188 z "},":":{"ha":283,"x_min":41,"x_max":229,"o":"m 41 627 l 166 627 q 229 564 229 616 l 229 501 q 166 438 229 438 l 41 438 l 41 627 m 41 313 l 166 313 q 229 250 229 303 l 229 188 q 166 125 229 125 l 41 125 l 41 313 z "},";":{"ha":377,"x_min":41,"x_max":323,"o":"m 135 219 l 323 219 l 323 62 l 166 31 l 135 94 l 135 219 m 135 -31 l 291 -31 q 323 -157 291 -102 q 103 -470 255 -367 l 41 -470 l 41 -407 q 135 -345 41 -345 l 135 -31 z "},"?":{"ha":690,"x_min":41,"x_max":635,"o":"m 166 1253 l 229 1253 q 604 751 511 1059 l 635 751 l 635 658 q 260 501 296 501 q 354 157 260 421 l 291 125 l 229 125 q 41 532 123 125 q 416 751 172 675 l 416 783 q 166 1065 261 992 l 197 1127 q 166 1253 166 1182 m 229 94 l 291 94 q 354 31 354 84 l 354 -94 l 166 -94 l 166 31 q 229 94 176 94 z "},"a":{"ha":815,"x_min":41,"x_max":761,"o":"m 511 1127 q 573 1065 573 1118 l 542 1002 q 730 313 688 1002 q 699 219 699 252 q 761 157 761 210 l 761 62 l 604 62 q 542 345 542 62 q 229 157 425 313 l 260 94 l 260 62 l 103 62 q 41 313 103 92 q 166 407 119 407 l 166 438 q 103 470 103 438 q 511 1127 103 1127 m 291 470 l 354 470 q 511 532 456 532 q 448 877 511 610 l 416 877 q 291 470 345 877 z "},"b":{"ha":909,"x_min":41,"x_max":855,"o":"m 41 1190 q 667 689 294 1190 l 604 470 q 792 282 648 470 l 761 219 l 792 219 q 823 250 792 250 l 855 188 l 855 31 q 761 -31 804 31 q 197 -62 633 -31 l 166 0 l 103 -31 q 41 31 41 -31 l 41 376 q 72 501 41 446 q 41 627 41 556 l 41 908 q 135 970 41 970 l 41 1096 l 41 1190 m 229 908 l 229 846 l 260 532 q 229 501 229 532 l 291 501 q 479 658 420 544 l 479 689 q 260 908 479 735 l 229 908 m 197 250 q 291 94 237 94 l 354 125 q 385 94 385 125 l 542 125 l 667 125 l 667 188 q 416 376 509 376 q 197 250 197 333 z "},"c":{"ha":596,"x_min":41,"x_max":542,"o":"m 416 1096 l 542 1096 l 542 1002 l 479 1002 l 542 908 l 542 783 q 479 720 542 720 l 354 720 l 354 814 q 229 564 272 814 l 229 501 q 542 188 301 188 l 542 0 q 103 282 319 0 l 135 345 q 41 407 41 345 l 41 627 q 416 1096 41 859 z "},"d":{"ha":721,"x_min":41,"x_max":667,"o":"m 41 1096 l 166 1096 q 635 532 531 852 l 667 532 l 667 407 q 229 -31 559 -31 l 41 -31 l 41 157 q 72 188 41 188 l 41 250 l 41 814 l 103 908 l 41 1002 l 41 1096 m 229 783 l 229 188 l 291 188 q 479 470 479 282 q 229 783 376 686 z "},"e":{"ha":659,"x_min":41,"x_max":604,"o":"m 573 1221 l 604 1159 l 604 1065 q 291 939 604 995 l 291 689 l 604 783 l 604 595 l 291 501 l 291 188 l 604 282 l 604 125 q 291 -31 565 78 l 291 -94 l 103 -94 q 41 31 103 -45 l 41 94 l 103 94 l 103 345 q 135 376 103 376 l 72 532 l 103 720 l 103 783 l 166 783 l 166 846 q 41 970 94 846 q 573 1221 41 1071 z "},"f":{"ha":627,"x_min":41,"x_max":573,"o":"m 573 1159 l 573 939 q 260 783 346 939 l 260 595 l 573 689 l 573 470 q 260 313 377 470 q 291 188 260 243 q 260 0 260 141 l 135 0 q 72 62 72 0 l 72 125 q 103 250 72 196 q 41 470 41 376 l 103 501 l 72 564 l 72 689 l 166 689 l 166 751 q 41 939 41 751 q 573 1159 166 1034 z "},"g":{"ha":1034,"x_min":41,"x_max":980,"o":"m 448 1034 q 542 1002 509 1002 l 542 908 q 354 814 542 814 l 385 751 q 260 376 385 720 l 260 282 q 511 157 326 157 l 604 313 q 416 438 416 313 l 416 470 q 949 658 672 658 q 980 532 980 603 l 980 470 q 730 407 781 407 q 792 282 792 331 q 479 -94 792 103 l 72 157 l 72 282 l 135 282 l 135 313 q 41 345 101 313 q 448 1034 241 1034 z "},"h":{"ha":753,"x_min":41,"x_max":699,"o":"m 260 1096 l 291 877 l 291 501 q 511 627 511 576 l 511 1002 q 699 751 699 1002 l 699 438 l 635 438 q 699 250 699 336 l 699 -62 l 573 -62 q 511 0 511 -62 l 511 219 l 479 376 q 291 313 376 313 l 291 94 l 229 94 l 291 0 q 229 -62 291 -62 l 103 -62 l 103 157 l 41 376 q 103 438 103 376 l 103 689 l 166 689 l 166 720 l 103 720 l 103 970 q 260 1096 117 1036 z "},"i":{"ha":283,"x_min":41,"x_max":229,"o":"m 41 1096 l 229 1096 l 229 970 q 166 908 229 908 l 41 908 l 41 1096 m 41 846 l 229 846 l 229 250 l 166 157 l 229 157 l 229 0 l 41 0 l 41 564 l 103 658 q 41 720 41 658 l 41 846 z "},"j":{"ha":471,"x_min":41,"x_max":416,"o":"m 229 1096 l 354 1096 q 416 1034 416 1086 l 416 970 q 354 908 416 908 l 229 908 l 229 1096 m 260 846 l 354 846 q 416 783 416 836 l 416 564 q 135 -501 416 -20 l 103 -501 q 41 -438 41 -501 l 41 -345 q 229 -94 79 -94 l 229 -62 l 166 -62 q 260 627 235 627 q 197 814 197 755 l 260 846 z "},"k":{"ha":1065,"x_min":41,"x_max":1011,"o":"m 41 1127 l 135 1127 q 260 470 260 1127 q 635 877 635 752 l 699 877 q 761 814 761 867 l 761 783 q 573 564 671 564 l 573 470 q 823 219 823 247 l 792 157 q 1011 0 930 157 l 1011 -31 q 918 -125 1011 -77 q 730 62 767 62 q 448 345 606 218 l 197 219 l 229 157 l 229 94 l 197 -62 l 72 -62 l 72 282 q 41 595 72 431 q 72 877 72 711 l 72 908 l 135 908 l 135 970 q 41 1127 41 970 z "},"l":{"ha":722,"x_min":41,"x_max":667,"o":"m 135 1159 l 166 1159 q 229 1096 229 1149 l 229 814 l 197 751 q 260 689 260 742 l 260 157 q 667 345 598 345 l 667 250 q 354 0 667 75 q 260 -125 260 -39 l 72 -125 q 41 62 41 -29 l 72 62 l 72 313 l 135 407 l 72 407 l 72 1096 q 135 1159 82 1159 z "},"m":{"ha":909,"x_min":41,"x_max":855,"o":"m 667 1096 l 823 1096 l 855 720 l 855 188 q 823 62 855 117 q 855 -31 855 2 l 792 -62 l 730 -62 q 667 0 667 -62 l 667 407 l 635 627 l 699 627 l 699 658 l 635 658 l 635 720 l 667 783 l 635 783 q 385 532 635 743 l 354 532 q 260 720 354 720 l 229 720 l 229 564 q 197 470 229 470 l 229 313 l 229 -31 l 103 -31 q 41 31 41 -31 l 41 783 q 135 846 41 846 l 135 877 l 41 877 l 41 1034 q 416 814 178 1034 q 667 1096 515 814 z "},"n":{"ha":722,"x_min":41,"x_max":667,"o":"m 511 1065 l 573 1065 q 635 1002 635 1055 l 635 313 l 667 157 l 604 125 l 635 62 l 635 -31 l 511 -31 q 448 31 448 -31 l 448 564 q 229 720 430 639 q 197 470 229 470 l 229 313 l 229 -31 l 103 -31 q 41 31 41 -31 l 41 846 l 103 846 l 103 877 l 41 877 l 41 1034 l 103 1034 q 416 814 120 1034 l 448 814 l 448 1002 q 511 1065 458 1065 z "},"o":{"ha":846,"x_min":41,"x_max":792,"o":"m 385 1002 l 448 1002 q 792 407 792 722 q 511 -94 792 138 l 479 -94 q 41 188 283 -94 l 41 250 l 103 250 l 41 345 q 385 1002 41 702 m 385 751 q 229 282 229 419 q 479 125 309 125 q 573 345 573 240 l 573 407 q 416 751 525 751 l 385 751 z "},"p":{"ha":722,"x_min":41,"x_max":667,"o":"m 41 1127 l 103 1127 q 635 532 555 792 l 667 532 l 667 438 q 229 -31 667 182 l 166 -125 l 229 -125 l 229 -407 l 72 -438 l 41 -438 l 41 125 q 72 250 41 196 q 41 376 41 305 l 41 783 q 135 846 41 846 l 41 970 l 41 1127 m 229 783 l 229 219 l 291 219 q 479 407 416 282 q 229 783 479 595 z "},"q":{"ha":941,"x_min":41,"x_max":886,"o":"m 416 1065 l 635 908 l 604 846 q 730 720 730 837 l 667 720 l 667 689 q 792 595 792 673 l 792 376 l 730 157 q 886 -62 760 157 l 886 -125 l 730 -125 l 573 0 q 511 -62 573 -62 q 41 250 298 -62 l 41 282 l 103 282 l 103 345 l 41 345 q 385 1065 41 646 l 416 1065 m 416 814 q 260 376 260 507 l 260 313 q 448 157 260 267 l 511 157 l 511 188 l 416 313 q 604 376 416 376 l 604 407 q 416 814 604 675 z "},"r":{"ha":784,"x_min":41,"x_max":730,"o":"m 103 1221 q 667 532 642 754 q 479 250 667 250 q 730 -157 593 1 l 699 -376 l 635 -376 q 354 94 597 -376 l 291 94 q 166 0 213 0 l 229 -94 l 229 -282 q 41 -376 197 -376 l 41 188 q 72 313 41 258 q 41 438 41 368 l 41 908 q 135 970 135 908 q 41 1002 74 1002 l 41 1159 q 103 1221 50 1221 m 229 846 l 229 282 l 260 282 q 479 532 479 384 q 229 846 389 754 z "},"s":{"ha":627,"x_min":41,"x_max":573,"o":"m 416 1127 l 479 1127 q 260 689 479 962 l 260 627 q 573 407 509 537 q 197 -376 573 103 l 135 -407 l 103 -407 l 103 -219 q 354 -31 177 -31 l 354 0 l 291 0 q 385 376 385 329 q 41 532 95 532 l 41 595 q 416 1127 265 1127 z "},"t":{"ha":659,"x_min":41,"x_max":604,"o":"m 103 1096 l 604 1096 l 604 970 q 385 846 604 901 q 323 658 385 729 l 385 658 l 385 -62 l 260 -62 q 197 0 197 -62 l 197 345 l 260 438 q 197 501 197 438 l 197 846 l 166 908 l 103 877 q 41 939 41 877 l 41 1034 q 103 1096 50 1096 z "},"u":{"ha":690,"x_min":41,"x_max":635,"o":"m 229 1159 l 229 219 l 260 157 q 479 282 412 208 l 448 345 l 448 438 q 479 470 448 470 l 448 532 q 479 595 448 595 l 448 814 l 448 1096 l 479 1096 l 635 1065 l 635 125 q 323 0 540 125 q 41 282 41 0 q 72 313 41 313 l 41 532 l 41 751 q 135 814 41 814 l 135 846 q 41 908 41 846 l 41 970 q 229 1159 41 1159 z "},"v":{"ha":690,"x_min":41,"x_max":635,"o":"m 135 1159 l 229 1159 l 229 438 q 385 250 346 250 q 448 376 385 300 l 448 595 l 573 595 l 573 627 q 448 689 448 627 l 448 1096 l 479 1096 l 635 1065 l 635 250 q 479 0 546 250 l 354 0 q 135 188 170 188 l 135 219 l 166 282 l 41 313 l 41 814 l 103 814 l 41 908 l 41 1065 q 135 1159 41 1109 z "},"w":{"ha":1035,"x_min":41,"x_max":980,"o":"m 573 1096 l 573 125 l 604 125 q 823 219 709 125 l 792 376 l 792 438 q 823 532 792 532 l 792 689 l 792 1034 q 980 939 980 1014 l 980 125 q 604 -31 823 -31 l 511 -31 l 511 31 l 416 -31 l 385 -31 q 41 219 41 -31 l 41 720 q 197 908 41 908 l 197 219 q 354 94 199 176 q 416 282 363 282 l 385 345 l 385 627 q 416 751 385 696 q 385 877 385 806 l 385 1034 l 573 1096 z "},"x":{"ha":815,"x_min":41,"x_max":761,"o":"m 416 1127 l 573 1127 l 573 1065 q 479 595 479 741 q 761 188 701 188 l 761 94 q 699 31 761 31 l 416 376 q 323 -31 323 45 l 166 -31 q 291 345 212 345 q 260 438 291 378 l 291 595 q 41 1065 41 967 l 103 1096 l 166 1096 q 354 814 166 1010 l 416 1127 z "},"y":{"ha":690,"x_min":41,"x_max":635,"o":"m 135 1190 q 385 814 135 1107 q 511 1034 448 1034 q 635 939 635 987 q 197 -31 300 92 q 72 62 72 16 q 260 595 260 548 q 41 939 260 681 l 72 1002 q 41 1127 41 1057 l 135 1190 z "},"z":{"ha":722,"x_min":41,"x_max":667,"o":"m 667 1284 l 667 1253 q 354 438 474 438 l 385 313 l 385 219 q 573 282 488 282 l 573 125 q 197 -62 532 81 l 103 -62 q 41 0 41 -62 l 41 62 q 323 783 135 140 l 354 939 l 291 939 l 197 877 l 72 877 l 41 1034 l 667 1284 z "},"‘":{"ha":346,"x_min":41,"x_max":292,"o":"m 197 622 l 103 622 q 41 684 41 631 l 41 841 q 229 1060 172 1060 l 292 1060 l 292 998 q 197 935 292 935 l 197 622 z "},"’":{"ha":346,"x_min":41,"x_max":292,"o":"m 135 1060 l 229 1060 q 292 998 292 1050 l 292 841 q 104 622 161 622 l 41 622 l 41 684 q 135 747 41 747 l 135 1060 z "},"“":{"ha":697,"x_min":41,"x_max":643,"o":"m 197 622 l 103 622 q 41 684 41 631 l 41 841 q 229 1060 172 1060 l 292 1060 l 292 998 q 197 935 292 935 l 197 622 m 549 622 l 454 622 q 392 684 392 631 l 392 841 q 580 1060 523 1060 l 643 1060 l 643 998 q 549 935 643 935 l 549 622 z "},"”":{"ha":697,"x_min":41,"x_max":643,"o":"m 135 1060 l 229 1060 q 292 998 292 1050 l 292 841 q 104 622 161 622 l 41 622 l 41 684 q 135 747 41 747 l 135 1060 m 486 1060 l 581 1060 q 643 998 643 1050 l 643 841 q 455 622 512 622 l 392 622 l 392 684 q 486 747 392 747 l 486 1060 z "},"A":{"ha":815,"x_min":41,"x_max":761,"o":"m 511 1127 q 573 1065 573 1118 l 542 1002 q 730 313 688 1002 q 699 219 699 252 q 761 157 761 210 l 761 62 l 604 62 q 542 345 542 62 q 229 157 425 313 l 260 94 l 260 62 l 103 62 q 41 313 103 92 q 166 407 119 407 l 166 438 q 103 470 103 438 q 511 1127 103 1127 m 291 470 l 354 470 q 511 532 456 532 q 448 877 511 610 l 416 877 q 291 470 345 877 z "},"B":{"ha":909,"x_min":41,"x_max":855,"o":"m 41 1190 q 667 689 294 1190 l 604 470 q 792 282 648 470 l 761 219 l 792 219 q 823 250 792 250 l 855 188 l 855 31 q 761 -31 804 31 q 197 -62 633 -31 l 166 0 l 103 -31 q 41 31 41 -31 l 41 376 q 72 501 41 446 q 41 627 41 556 l 41 908 q 135 970 41 970 l 41 1096 l 41 1190 m 229 908 l 229 846 l 260 532 q 229 501 229 532 l 291 501 q 479 658 420 544 l 479 689 q 260 908 479 735 l 229 908 m 197 250 q 291 94 237 94 l 354 125 q 385 94 385 125 l 542 125 l 667 125 l 667 188 q 416 376 509 376 q 197 250 197 333 z "},"C":{"ha":596,"x_min":41,"x_max":542,"o":"m 416 1096 l 542 1096 l 542 1002 l 479 1002 l 542 908 l 542 783 q 479 720 542 720 l 354 720 l 354 814 q 229 564 272 814 l 229 501 q 542 188 301 188 l 542 0 q 103 282 319 0 l 135 345 q 41 407 41 345 l 41 627 q 416 1096 41 859 z "},"D":{"ha":721,"x_min":41,"x_max":667,"o":"m 41 1096 l 166 1096 q 635 532 531 852 l 667 532 l 667 407 q 229 -31 559 -31 l 41 -31 l 41 157 q 72 188 41 188 l 41 250 l 41 814 l 103 908 l 41 1002 l 41 1096 m 229 783 l 229 188 l 291 188 q 479 470 479 282 q 229 783 376 686 z "},"E":{"ha":659,"x_min":41,"x_max":604,"o":"m 573 1221 l 604 1159 l 604 1065 q 291 939 604 995 l 291 689 l 604 783 l 604 595 l 291 501 l 291 188 l 604 282 l 604 125 q 291 -31 565 78 l 291 -94 l 103 -94 q 41 31 103 -45 l 41 94 l 103 94 l 103 345 q 135 376 103 376 l 72 532 l 103 720 l 103 783 l 166 783 l 166 846 q 41 970 94 846 q 573 1221 41 1071 z "},"F":{"ha":627,"x_min":41,"x_max":573,"o":"m 573 1159 l 573 939 q 260 783 346 939 l 260 595 l 573 689 l 573 470 q 260 313 377 470 q 291 188 260 243 q 260 0 260 141 l 135 0 q 72 62 72 0 l 72 125 q 103 250 72 196 q 41 470 41 376 l 103 501 l 72 564 l 72 689 l 166 689 l 166 751 q 41 939 41 751 q 573 1159 166 1034 z "},"G":{"ha":1034,"x_min":41,"x_max":980,"o":"m 448 1034 q 542 1002 509 1002 l 542 908 q 354 814 542 814 l 385 751 q 260 376 385 720 l 260 282 q 511 157 326 157 l 604 313 q 416 438 416 313 l 416 470 q 949 658 672 658 q 980 532 980 603 l 980 470 q 730 407 781 407 q 792 282 792 331 q 479 -94 792 103 l 72 157 l 72 282 l 135 282 l 135 313 q 41 345 101 313 q 448 1034 241 1034 z "},"H":{"ha":753,"x_min":41,"x_max":699,"o":"m 260 1096 l 291 877 l 291 501 q 511 627 511 576 l 511 1002 q 699 751 699 1002 l 699 438 l 635 438 q 699 250 699 336 l 699 -62 l 573 -62 q 511 0 511 -62 l 511 219 l 479 376 q 291 313 376 313 l 291 94 l 229 94 l 291 0 q 229 -62 291 -62 l 103 -62 l 103 157 l 41 376 q 103 438 103 376 l 103 689 l 166 689 l 166 720 l 103 720 l 103 970 q 260 1096 117 1036 z "},"I":{"ha":283,"x_min":41,"x_max":229,"o":"m 41 1096 l 229 1096 l 229 970 q 166 908 229 908 l 41 908 l 41 1096 m 41 846 l 229 846 l 229 250 l 166 157 l 229 157 l 229 0 l 41 0 l 41 564 l 103 658 q 41 720 41 658 l 41 846 z "},"J":{"ha":471,"x_min":41,"x_max":416,"o":"m 229 1096 l 354 1096 q 416 1034 416 1086 l 416 970 q 354 908 416 908 l 229 908 l 229 1096 m 260 846 l 354 846 q 416 783 416 836 l 416 564 q 135 -501 416 -20 l 103 -501 q 41 -438 41 -501 l 41 -345 q 229 -94 79 -94 l 229 -62 l 166 -62 q 260 627 235 627 q 197 814 197 755 l 260 846 z "},"K":{"ha":1065,"x_min":41,"x_max":1011,"o":"m 41 1127 l 135 1127 q 260 470 260 1127 q 635 877 635 752 l 699 877 q 761 814 761 867 l 761 783 q 573 564 671 564 l 573 470 q 823 219 823 247 l 792 157 q 1011 0 930 157 l 1011 -31 q 918 -125 1011 -77 q 730 62 767 62 q 448 345 606 218 l 197 219 l 229 157 l 229 94 l 197 -62 l 72 -62 l 72 282 q 41 595 72 431 q 72 877 72 711 l 72 908 l 135 908 l 135 970 q 41 1127 41 970 z "},"L":{"ha":722,"x_min":41,"x_max":667,"o":"m 135 1159 l 166 1159 q 229 1096 229 1149 l 229 814 l 197 751 q 260 689 260 742 l 260 157 q 667 345 598 345 l 667 250 q 354 0 667 75 q 260 -125 260 -39 l 72 -125 q 41 62 41 -29 l 72 62 l 72 313 l 135 407 l 72 407 l 72 1096 q 135 1159 82 1159 z "},"M":{"ha":909,"x_min":41,"x_max":855,"o":"m 667 1096 l 823 1096 l 855 720 l 855 188 q 823 62 855 117 q 855 -31 855 2 l 792 -62 l 730 -62 q 667 0 667 -62 l 667 407 l 635 627 l 699 627 l 699 658 l 635 658 l 635 720 l 667 783 l 635 783 q 385 532 635 743 l 354 532 q 260 720 354 720 l 229 720 l 229 564 q 197 470 229 470 l 229 313 l 229 -31 l 103 -31 q 41 31 41 -31 l 41 783 q 135 846 41 846 l 135 877 l 41 877 l 41 1034 q 416 814 178 1034 q 667 1096 515 814 z "},"N":{"ha":722,"x_min":41,"x_max":667,"o":"m 511 1065 l 573 1065 q 635 1002 635 1055 l 635 313 l 667 157 l 604 125 l 635 62 l 635 -31 l 511 -31 q 448 31 448 -31 l 448 564 q 229 720 430 639 q 197 470 229 470 l 229 313 l 229 -31 l 103 -31 q 41 31 41 -31 l 41 846 l 103 846 l 103 877 l 41 877 l 41 1034 l 103 1034 q 416 814 120 1034 l 448 814 l 448 1002 q 511 1065 458 1065 z "},"O":{"ha":846,"x_min":41,"x_max":792,"o":"m 385 1002 l 448 1002 q 792 407 792 722 q 511 -94 792 138 l 479 -94 q 41 188 283 -94 l 41 250 l 103 250 l 41 345 q 385 1002 41 702 m 385 751 q 229 282 229 419 q 479 125 309 125 q 573 345 573 240 l 573 407 q 416 751 525 751 l 385 751 z "},"P":{"ha":722,"x_min":41,"x_max":667,"o":"m 41 1127 l 103 1127 q 635 532 555 792 l 667 532 l 667 438 q 229 -31 667 182 l 166 -125 l 229 -125 l 229 -407 l 72 -438 l 41 -438 l 41 125 q 72 250 41 196 q 41 376 41 305 l 41 783 q 135 846 41 846 l 41 970 l 41 1127 m 229 783 l 229 219 l 291 219 q 479 407 416 282 q 229 783 479 595 z "},"Q":{"ha":941,"x_min":41,"x_max":886,"o":"m 416 1065 l 635 908 l 604 846 q 730 720 730 837 l 667 720 l 667 689 q 792 595 792 673 l 792 376 l 730 157 q 886 -62 760 157 l 886 -125 l 730 -125 l 573 0 q 511 -62 573 -62 q 41 250 298 -62 l 41 282 l 103 282 l 103 345 l 41 345 q 385 1065 41 646 l 416 1065 m 416 814 q 260 376 260 507 l 260 313 q 448 157 260 267 l 511 157 l 511 188 l 416 313 q 604 376 416 376 l 604 407 q 416 814 604 675 z "},"R":{"ha":784,"x_min":41,"x_max":730,"o":"m 103 1221 q 667 532 642 754 q 479 250 667 250 q 730 -157 593 1 l 699 -376 l 635 -376 q 354 94 597 -376 l 291 94 q 166 0 213 0 l 229 -94 l 229 -282 q 41 -376 197 -376 l 41 188 q 72 313 41 258 q 41 438 41 368 l 41 908 q 135 970 135 908 q 41 1002 74 1002 l 41 1159 q 103 1221 50 1221 m 229 846 l 229 282 l 260 282 q 479 532 479 384 q 229 846 389 754 z "},"S":{"ha":627,"x_min":41,"x_max":573,"o":"m 416 1127 l 479 1127 q 260 689 479 962 l 260 627 q 573 407 509 537 q 197 -376 573 103 l 135 -407 l 103 -407 l 103 -219 q 354 -31 177 -31 l 354 0 l 291 0 q 385 376 385 329 q 41 532 95 532 l 41 595 q 416 1127 265 1127 z "},"T":{"ha":659,"x_min":41,"x_max":604,"o":"m 103 1096 l 604 1096 l 604 970 q 385 846 604 901 q 323 658 385 729 l 385 658 l 385 -62 l 260 -62 q 197 0 197 -62 l 197 345 l 260 438 q 197 501 197 438 l 197 846 l 166 908 l 103 877 q 41 939 41 877 l 41 1034 q 103 1096 50 1096 z "},"U":{"ha":690,"x_min":41,"x_max":635,"o":"m 229 1159 l 229 219 l 260 157 q 479 282 412 208 l 448 345 l 448 438 q 479 470 448 470 l 448 532 q 479 595 448 595 l 448 814 l 448 1096 l 479 1096 l 635 1065 l 635 125 q 323 0 540 125 q 41 282 41 0 q 72 313 41 313 l 41 532 l 41 751 q 135 814 41 814 l 135 846 q 41 908 41 846 l 41 970 q 229 1159 41 1159 z "},"V":{"ha":690,"x_min":41,"x_max":635,"o":"m 135 1159 l 229 1159 l 229 438 q 385 250 346 250 q 448 376 385 300 l 448 595 l 573 595 l 573 627 q 448 689 448 627 l 448 1096 l 479 1096 l 635 1065 l 635 250 q 479 0 546 250 l 354 0 q 135 188 170 188 l 135 219 l 166 282 l 41 313 l 41 814 l 103 814 l 41 908 l 41 1065 q 135 1159 41 1109 z "},"W":{"ha":1035,"x_min":41,"x_max":980,"o":"m 573 1096 l 573 125 l 604 125 q 823 219 709 125 l 792 376 l 792 438 q 823 532 792 532 l 792 689 l 792 1034 q 980 939 980 1014 l 980 125 q 604 -31 823 -31 l 511 -31 l 511 31 l 416 -31 l 385 -31 q 41 219 41 -31 l 41 720 q 197 908 41 908 l 197 219 q 354 94 199 176 q 416 282 363 282 l 385 345 l 385 627 q 416 751 385 696 q 385 877 385 806 l 385 1034 l 573 1096 z "},"X":{"ha":815,"x_min":41,"x_max":761,"o":"m 416 1127 l 573 1127 l 573 1065 q 479 595 479 741 q 761 188 701 188 l 761 94 q 699 31 761 31 l 416 376 q 323 -31 323 45 l 166 -31 q 291 345 212 345 q 260 438 291 378 l 291 595 q 41 1065 41 967 l 103 1096 l 166 1096 q 354 814 166 1010 l 416 1127 z "},"Y":{"ha":690,"x_min":41,"x_max":635,"o":"m 135 1190 q 385 814 135 1107 q 511 1034 448 1034 q 635 939 635 987 q 197 -31 300 92 q 72 62 72 16 q 260 595 260 548 q 41 939 260 681 l 72 1002 q 41 1127 41 1057 l 135 1190 z "},"Z":{"ha":722,"x_min":41,"x_max":667,"o":"m 667 1284 l 667 1253 q 354 438 474 438 l 385 313 l 385 219 q 573 282 488 282 l 573 125 q 197 -62 532 81 l 103 -62 q 41 0 41 -62 l 41 62 q 323 783 135 140 l 354 939 l 291 939 l 197 877 l 72 877 l 41 1034 l 667 1284 z "}}}
